<?xml version="1.0" standalone="no"?>
<!DOCTYPE svg PUBLIC "-//W3C//DTD SVG 20010904//EN"
 "http://www.w3.org/TR/2001/REC-SVG-20010904/DTD/svg10.dtd">
<svg version="1.0" xmlns="http://www.w3.org/2000/svg"
 width="1280.000000pt" height="1280.000000pt" viewBox="0 0 1280.000000 1280.000000"
 preserveAspectRatio="xMidYMid meet">
<metadata>
Created by potrace 1.15, written by Peter Selinger 2001-2017
</metadata>
<g transform="translate(0.000000,1280.000000) scale(0.100000,-0.100000)"
fill="#000000" stroke="none">
<path d="M6247 12794 c-3 -4 -64 -8 -134 -9 -229 -5 -337 -12 -376 -24 -21 -7
-47 -11 -58 -8 -24 6 -160 -10 -196 -24 -15 -5 -61 -12 -103 -14 -42 -2 -96
-11 -120 -21 -25 -9 -58 -16 -75 -15 -42 2 -175 -28 -202 -45 -13 -8 -35 -14
-50 -13 -41 3 -142 -20 -185 -42 -21 -11 -51 -19 -67 -19 -36 0 -188 -47 -196
-60 -3 -6 -19 -10 -34 -10 -32 0 -165 -43 -197 -65 -13 -8 -33 -15 -44 -15
-30 0 -176 -58 -190 -75 -7 -8 -24 -15 -39 -15 -30 -1 -161 -57 -191 -82 -11
-10 -28 -18 -38 -18 -26 -1 -157 -62 -186 -87 -15 -13 -34 -23 -45 -23 -24 0
-149 -66 -182 -96 -14 -13 -34 -24 -45 -24 -22 0 -159 -81 -187 -111 -10 -10
-25 -19 -34 -19 -21 0 -159 -86 -175 -109 -7 -10 -24 -22 -38 -26 -33 -10
-104 -59 -157 -107 -24 -21 -48 -38 -54 -38 -18 0 -145 -97 -163 -125 -9 -14
-23 -25 -30 -25 -21 0 -154 -107 -161 -129 -3 -11 -19 -24 -36 -30 -17 -6 -65
-44 -107 -85 -42 -41 -105 -97 -138 -125 -34 -27 -72 -66 -84 -86 -12 -19 -34
-42 -49 -50 -35 -17 -141 -131 -141 -150 0 -8 -13 -21 -30 -30 -33 -17 -140
-141 -140 -162 0 -7 -11 -19 -25 -25 -28 -13 -135 -142 -135 -164 0 -7 -12
-21 -26 -30 -30 -20 -108 -119 -126 -160 -7 -16 -21 -35 -30 -42 -28 -20 -106
-134 -114 -165 -3 -16 -13 -31 -21 -34 -18 -7 -89 -111 -114 -167 -10 -24 -26
-49 -34 -56 -20 -17 -91 -136 -100 -170 -4 -14 -19 -38 -33 -55 -30 -36 -92
-162 -92 -187 0 -10 -4 -18 -10 -18 -15 0 -68 -98 -87 -160 -9 -30 -24 -64
-34 -75 -24 -29 -79 -159 -79 -188 0 -13 -6 -30 -14 -36 -20 -17 -76 -154 -76
-186 0 -15 -9 -40 -21 -56 -24 -33 -69 -162 -69 -196 0 -13 -7 -34 -16 -48
-22 -33 -54 -143 -54 -184 0 -19 -6 -42 -14 -50 -19 -22 -57 -162 -54 -199 1
-16 -3 -36 -10 -44 -16 -20 -42 -134 -42 -186 0 -24 -6 -55 -14 -70 -18 -36
-37 -142 -35 -189 2 -21 -2 -47 -8 -58 -12 -23 -33 -164 -32 -210 1 -16 -4
-48 -10 -70 -6 -22 -11 -76 -11 -120 1 -44 -4 -100 -10 -125 -6 -24 -11 -87
-11 -140 0 -52 -1 -135 -1 -185 -1 -49 -1 -101 0 -115 0 -14 0 -70 0 -125 -1
-244 2 -307 13 -347 7 -24 11 -47 9 -53 -6 -23 1 -154 11 -186 6 -18 12 -70
13 -114 2 -44 10 -105 18 -135 9 -30 18 -90 22 -132 3 -42 13 -96 22 -120 9
-24 16 -54 16 -68 0 -40 29 -172 44 -202 8 -15 14 -41 14 -59 0 -44 28 -148
50 -187 11 -17 17 -38 14 -46 -7 -18 40 -174 60 -201 9 -11 16 -33 16 -48 0
-37 48 -173 66 -188 8 -6 14 -23 14 -38 0 -31 46 -156 72 -193 10 -14 21 -41
25 -60 9 -46 50 -137 79 -175 13 -17 24 -41 24 -53 0 -27 65 -156 90 -178 11
-9 20 -28 20 -42 0 -29 68 -156 99 -184 12 -11 21 -28 21 -38 0 -25 73 -148
105 -178 14 -13 25 -31 25 -40 0 -22 95 -169 114 -176 8 -3 17 -17 21 -31 8
-35 77 -135 114 -166 17 -14 31 -32 31 -40 0 -19 78 -125 116 -157 16 -14 36
-39 43 -57 7 -18 44 -65 82 -104 38 -40 78 -86 89 -103 10 -17 40 -52 67 -78
26 -25 56 -54 65 -65 118 -127 163 -173 174 -173 7 0 15 -8 19 -19 3 -10 38
-48 78 -86 39 -37 109 -102 154 -146 45 -43 93 -81 106 -84 13 -4 31 -18 38
-32 16 -29 144 -133 165 -133 7 0 21 -11 29 -24 21 -31 115 -103 161 -122 19
-8 37 -21 40 -29 8 -19 130 -105 169 -118 16 -6 38 -20 47 -32 21 -26 148
-105 169 -105 9 0 26 -12 40 -26 30 -32 157 -104 184 -104 11 0 26 -9 32 -19
14 -22 165 -101 193 -101 10 0 24 -7 31 -17 18 -21 167 -93 193 -93 11 0 29
-9 40 -19 25 -24 157 -81 185 -81 11 0 36 -11 56 -24 40 -28 147 -66 183 -66
13 0 35 -9 48 -19 28 -22 133 -59 179 -64 17 -1 44 -10 60 -18 47 -25 130 -50
180 -54 26 -2 53 -9 61 -16 19 -16 150 -49 194 -49 20 0 40 -4 45 -9 16 -15
129 -41 179 -41 26 0 59 -6 74 -14 33 -17 175 -40 200 -32 10 4 33 -1 51 -10
21 -10 67 -17 132 -20 55 -2 109 -9 120 -15 11 -6 73 -13 137 -16 269 -13 362
-16 462 -15 58 0 116 0 130 0 166 -5 437 7 471 20 15 6 44 8 66 5 37 -5 176
11 195 23 5 3 48 7 96 9 48 1 105 10 127 18 22 8 75 18 117 21 42 3 96 13 120
22 24 9 61 17 83 19 59 4 155 26 190 44 17 8 41 14 55 13 31 -3 154 32 186 53
13 8 38 15 56 15 42 0 183 47 198 66 7 8 27 14 45 14 41 0 142 34 177 60 15
11 38 20 51 20 33 0 166 56 192 80 12 11 34 20 49 20 33 0 165 60 185 83 7 9
25 17 38 17 30 0 183 78 190 97 3 7 13 13 24 13 25 0 170 76 190 100 9 10 29
22 45 26 36 9 132 66 174 104 19 17 40 30 49 30 20 0 138 77 159 105 10 12 29
26 42 30 32 10 143 88 167 117 10 13 40 34 66 47 26 13 73 48 104 78 30 30 70
61 87 70 17 9 62 47 100 85 37 37 73 68 78 68 6 0 49 38 97 84 47 47 114 110
149 142 34 32 72 73 83 91 11 18 26 33 33 33 14 0 96 82 128 130 13 19 51 61
84 93 34 32 72 78 85 103 13 24 32 47 41 50 21 6 128 145 128 166 0 8 11 20
24 28 30 16 126 146 126 171 0 10 9 23 20 29 23 12 120 147 120 166 0 7 13 28
29 46 41 48 99 141 107 174 4 15 17 37 30 48 26 24 92 141 97 172 1 12 16 36
31 55 34 40 86 145 86 173 0 11 11 31 24 45 26 28 86 158 86 187 0 10 9 27 19
38 21 23 81 164 81 191 0 9 8 29 19 43 22 32 71 165 71 194 0 12 6 29 14 37
18 21 66 169 66 203 0 15 4 30 10 33 12 7 49 124 60 190 5 28 18 77 30 110 12
32 25 89 30 125 4 36 16 85 25 110 9 25 19 79 22 120 3 41 10 80 15 86 14 18
39 176 32 207 -3 15 -1 34 5 41 15 17 34 171 26 207 -4 15 -1 38 6 51 8 13 15
70 17 133 2 61 7 148 11 195 4 47 4 99 -1 115 -5 19 -4 40 3 57 7 17 9 61 5
120 -3 51 -5 102 -5 113 5 82 -2 219 -11 229 -7 10 -7 22 0 40 6 18 6 55 -1
114 -6 48 -12 124 -14 168 -2 45 -10 110 -18 145 -8 35 -15 89 -16 120 -1 30
-8 80 -17 110 -9 30 -17 78 -19 107 -4 68 -21 146 -41 188 -9 19 -14 40 -11
48 8 19 -30 175 -49 204 -8 13 -13 31 -10 40 7 21 -29 158 -50 189 -8 12 -14
33 -14 47 0 34 -46 177 -64 201 -9 11 -16 29 -16 41 0 32 -47 161 -69 193 -12
16 -21 38 -21 50 0 30 -49 151 -76 188 -13 17 -24 41 -24 53 0 28 -62 161 -83
179 -9 7 -17 22 -17 32 0 25 -66 156 -96 192 -13 16 -24 35 -24 43 0 23 -57
130 -88 166 -16 18 -32 44 -35 58 -8 31 -82 149 -107 170 -9 8 -22 29 -28 47
-13 40 -85 147 -111 165 -10 7 -22 24 -26 37 -10 32 -101 157 -119 164 -7 3
-23 26 -36 51 -12 25 -50 76 -85 112 -36 36 -67 75 -70 85 -4 11 -40 54 -81
96 -41 43 -84 91 -94 109 -19 30 -99 110 -130 130 -8 5 -28 28 -44 52 -31 45
-116 122 -135 122 -6 0 -17 13 -25 28 -15 29 -130 142 -145 142 -4 0 -41 33
-82 73 -41 39 -88 79 -104 87 -15 8 -52 38 -80 66 -28 29 -78 67 -109 84 -32
18 -60 39 -63 47 -6 16 -142 113 -159 113 -6 0 -33 20 -58 44 -26 24 -80 61
-121 81 -41 21 -75 42 -75 46 0 10 -139 95 -170 104 -14 4 -36 18 -50 30 -34
32 -152 95 -177 95 -11 0 -28 10 -39 21 -21 24 -169 99 -195 99 -9 0 -23 7
-30 16 -18 22 -155 84 -185 84 -12 0 -26 5 -30 11 -10 16 -146 77 -191 85 -21
3 -45 13 -53 20 -22 18 -147 65 -185 68 -17 2 -42 10 -55 19 -31 20 -144 55
-190 60 -20 2 -47 11 -60 20 -30 19 -136 47 -179 47 -18 0 -42 6 -54 14 -31
20 -137 46 -189 46 -24 0 -49 5 -55 11 -15 15 -127 38 -184 39 -26 0 -63 7
-83 15 -21 9 -81 20 -134 25 -53 5 -122 14 -152 19 -30 6 -84 11 -120 10 -36
-1 -78 4 -93 10 -15 6 -65 11 -110 11 -45 0 -89 0 -97 0 -8 0 -52 5 -98 11
-59 8 -96 8 -125 1 -26 -7 -47 -7 -58 -1 -19 10 -222 13 -232 3z m-1296 -3004
c21 -109 85 -267 154 -379 37 -62 42 -77 23 -65 -7 4 -8 3 -4 -5 4 -6 11 -9
15 -6 5 2 25 -21 46 -53 132 -199 410 -515 637 -723 l103 -95 265 12 c146 7
419 15 608 19 l343 8 92 101 c355 387 597 752 714 1076 19 53 23 58 21 30 -3
-29 1 -35 17 -36 18 -1 82 -33 110 -54 6 -4 17 -7 25 -7 17 0 92 -46 130 -80
14 -13 28 -23 32 -23 4 0 36 -24 71 -54 l64 -55 37 37 c23 22 10 2 -31 -49
-205 -260 -406 -727 -537 -1250 l-27 -105 313 -527 312 -526 146 -35 c379 -91
647 -126 949 -126 160 0 307 12 364 30 16 5 25 5 22 0 -3 -4 -19 -12 -36 -15
-20 -5 -27 -10 -20 -15 19 -11 31 -123 31 -302 0 -119 -3 -169 -12 -174 -8 -5
1 -12 23 -21 22 -9 26 -12 9 -9 -77 14 -262 17 -385 6 -311 -25 -656 -101
-1035 -227 l-85 -29 -272 -539 c-150 -297 -272 -548 -272 -557 -1 -24 68 -224
134 -389 173 -433 365 -747 577 -945 40 -37 60 -59 44 -50 -16 10 -26 14 -22
8 7 -12 -77 -98 -139 -143 -25 -18 -45 -36 -45 -39 0 -4 -19 -20 -42 -36 -24
-16 -45 -32 -48 -35 -9 -10 -152 -104 -230 -151 -105 -63 -168 -94 -217 -109
l-43 -12 -1 -61 c-2 -57 -2 -55 -10 29 -21 211 -114 432 -304 715 -138 206
-359 472 -538 649 l-75 73 -608 9 -609 9 -165 -168 c-205 -208 -390 -429 -495
-589 -15 -24 -32 -40 -38 -36 -5 3 -7 1 -3 -5 3 -6 -8 -34 -25 -63 -171 -291
-224 -510 -174 -729 l5 -25 -10 25 c-7 18 -28 32 -73 50 -34 13 -93 39 -130
57 -38 19 -66 29 -62 24 10 -17 4 -14 -91 35 -216 112 -503 299 -497 324 1 4
-19 6 -45 4 l-47 -3 44 9 c317 68 601 494 806 1209 29 102 65 243 81 312 l27
127 -316 498 c-174 275 -322 507 -329 517 -23 30 -372 99 -671 132 -175 19
-520 20 -642 1 -201 -31 -359 -91 -460 -176 l-50 -42 51 49 c48 45 50 50 43
83 -15 72 -30 339 -24 435 9 155 26 301 45 404 l19 95 -26 43 c-14 24 -23 43
-20 43 3 0 16 -19 30 -42 59 -99 163 -180 295 -228 l83 -30 379 0 c362 0 385
1 515 25 158 29 364 79 538 131 l122 35 292 540 293 540 -69 207 c-210 633
-463 1066 -721 1233 -49 32 -64 46 -35 36 13 -6 82 31 150 79 30 21 203 114
238 127 10 4 16 3 12 -3 -3 -5 33 9 80 31 47 22 89 38 94 35 4 -3 24 -1 44 5
21 5 56 11 79 13 39 3 43 6 48 32 4 25 5 24 7 -11 2 -22 8 -65 14 -95z m-707
-5932 c-32 -53 -87 -117 -96 -112 -7 5 -8 2 -3 -5 16 -26 -141 -146 -215 -165
-14 -3 -2 4 25 18 49 23 101 59 78 54 -6 -2 -11 2 -11 7 1 18 21 55 30 55 5 0
6 5 3 10 -3 6 1 10 9 10 9 0 16 5 16 10 0 6 9 10 21 10 13 0 18 4 13 11 -5 8
1 10 20 7 24 -5 33 1 69 48 40 51 57 69 41 42z m-391 -475 c-7 -2 -21 -2 -30
0 -10 3 -4 5 12 5 17 0 24 -2 18 -5z"/>
<path d="M6125 8315 c-138 -22 -221 -44 -330 -87 -88 -34 -215 -96 -175 -85 8
3 30 -6 47 -20 78 -58 307 -145 316 -119 2 6 3 -25 3 -69 0 -100 22 -174 71
-245 50 -72 121 -124 205 -151 190 -61 391 27 481 211 29 59 32 73 32 160 0
52 -3 109 -7 125 -7 27 -6 28 4 8 6 -13 14 -23 18 -23 32 0 230 87 271 119 13
10 31 20 39 23 38 12 -249 116 -395 144 -125 23 -459 28 -580 9z"/>
<path d="M6280 7350 c-181 -31 -365 -149 -475 -304 -86 -122 -124 -228 -132
-366 -7 -127 13 -218 74 -340 40 -80 62 -110 143 -191 81 -81 109 -102 190
-142 121 -60 215 -81 335 -74 178 9 334 83 470 222 138 140 208 303 209 485 1
118 -14 180 -69 295 -139 288 -456 465 -745 415z"/>
<path d="M7579 7066 c-117 -45 -191 -111 -241 -214 -30 -61 -32 -75 -32 -162
0 -76 4 -107 23 -153 32 -81 115 -168 199 -209 62 -31 74 -33 167 -33 92 0
106 3 167 32 83 39 154 108 194 188 27 55 29 69 29 170 0 98 -3 116 -27 167
-37 80 -107 152 -186 190 -58 29 -77 33 -161 35 -63 2 -108 -2 -132 -11z"/>
<path d="M4986 7019 c-146 -50 -240 -163 -264 -314 -27 -172 63 -342 223 -421
55 -26 69 -29 165 -29 98 0 109 2 170 32 107 52 177 132 210 239 24 79 25 139
5 219 -57 219 -296 347 -509 274z"/>
<path d="M7976 5995 c-9 -26 -7 -32 5 -12 6 10 9 21 6 23 -2 3 -7 -2 -11 -11z"/>
<path d="M7917 5865 c-20 -41 -35 -75 -32 -75 7 0 77 141 73 146 -2 2 -21 -30
-41 -71z"/>
<path d="M7854 5748 c-4 -7 -14 -24 -22 -38 -14 -24 -13 -24 3 -5 20 24 37 55
31 55 -3 0 -8 -6 -12 -12z"/>
<path d="M6240 5714 c-242 -65 -364 -337 -253 -563 33 -69 112 -147 184 -183
58 -29 55 -38 -4 -13 -20 8 -37 11 -39 6 -2 -5 -32 -5 -68 0 -102 15 -93 5 16
-17 64 -12 136 -19 203 -18 57 1 98 -2 92 -5 -14 -9 160 -1 214 9 39 8 39 8
-20 10 -33 2 -67 2 -75 1 -8 -1 -31 -3 -50 -6 -35 -5 -35 -5 -4 4 195 51 332
261 296 453 -30 163 -140 282 -297 323 -72 18 -123 18 -195 -1z m23 -781 c-7
-2 -19 -2 -25 0 -7 3 -2 5 12 5 14 0 19 -2 13 -5z"/>
<path d="M7779 5633 c-13 -16 -12 -17 4 -4 16 13 21 21 13 21 -2 0 -10 -8 -17
-17z"/>
<path d="M7719 5553 c-13 -16 -12 -17 4 -4 9 7 17 15 17 17 0 8 -8 3 -21 -13z"/>
<path d="M7654 5478 l-29 -33 33 29 c30 28 37 36 29 36 -2 0 -16 -15 -33 -32z"/>
<path d="M6648 4943 c7 -3 16 -2 19 1 4 3 -2 6 -13 5 -11 0 -14 -3 -6 -6z"/>
</g>
</svg>
