<?xml version="1.0" standalone="no"?>
<!DOCTYPE svg PUBLIC "-//W3C//DTD SVG 20010904//EN"
 "http://www.w3.org/TR/2001/REC-SVG-20010904/DTD/svg10.dtd">
<svg version="1.0" xmlns="http://www.w3.org/2000/svg"
 width="1280.000000pt" height="640.000000pt" viewBox="0 0 1280.000000 640.000000"
 preserveAspectRatio="xMidYMid meet">
<metadata>
Created by potrace 1.15, written by Peter Selinger 2001-2017
</metadata>
<g transform="translate(0.000000,640.000000) scale(0.100000,-0.100000)"
fill="#000000" stroke="none">
<path d="M10790 5184 c-408 -52 -782 -230 -1154 -550 -259 -223 -281 -241
-410 -338 -148 -111 -282 -196 -386 -244 -74 -34 -78 -35 -259 -43 -318 -13
-5016 -13 -5089 0 -252 47 -473 173 -736 418 -214 200 -418 313 -675 374 -787
188 -1550 -174 -1915 -907 -94 -189 -174 -463 -162 -549 10 -63 55 -128 108
-154 58 -28 121 -27 233 4 50 13 290 65 535 115 245 49 456 92 469 95 19 5 34
-4 76 -48 29 -29 68 -82 88 -118 118 -211 186 -543 143 -692 -9 -31 -18 -57
-20 -57 -5 0 -263 -69 -766 -204 -431 -116 -455 -126 -499 -204 -27 -51 -30
-134 -6 -186 34 -71 220 -258 364 -365 274 -203 570 -306 913 -318 296 -10
528 36 783 156 147 69 220 122 431 307 379 333 539 445 744 516 l95 33 2541
-2 c1704 -1 2571 -5 2635 -12 110 -12 211 -38 292 -75 154 -70 372 -226 541
-387 211 -201 305 -271 481 -359 250 -125 496 -180 800 -180 486 1 917 181
1266 529 257 258 427 562 520 933 34 137 35 168 8 228 -25 56 -44 77 -89 100
-69 34 -95 33 -270 -10 -146 -35 -977 -208 -1087 -226 -41 -6 -44 -5 -96 47
-131 132 -242 410 -278 695 -13 106 -4 209 25 278 13 31 17 33 197 80 101 26
238 63 304 82 66 18 272 74 459 124 186 50 351 97 366 105 63 32 110 114 110
190 0 56 -45 128 -146 234 -273 289 -595 473 -982 562 -66 15 -132 21 -277 24
-104 2 -206 1 -225 -1z"/>
</g>
</svg>
