<svg id="svg" xmlns="http://www.w3.org/2000/svg" xmlns:xlink="http://www.w3.org/1999/xlink" width="400" height="178" viewBox="0, 0, 400,178" version="1.1"><g id="svgg"><path id="path0" d="M6.040 4.669 L 4.871 4.840 4.662 5.624 C 4.500 6.227,4.274 126.406,4.395 147.040 C 4.448 156.049,4.427 157.397,4.228 157.852 C 3.526 159.453,3.921 174.811,4.664 174.811 C 4.742 174.811,4.806 174.925,4.806 175.064 C 4.806 175.243,5.128 175.349,5.919 175.427 C 8.448 175.678,394.946 175.446,395.251 175.193 C 395.410 175.061,395.743 174.525,395.990 174.003 L 396.440 173.053 396.440 166.547 C 396.440 160.102,396.382 159.306,395.792 157.673 C 395.589 157.111,395.549 144.787,395.547 81.750 C 395.544 5.092,395.548 5.636,394.956 5.044 C 394.358 4.445,397.795 4.455,200.356 4.477 C 78.232 4.491,6.780 4.561,6.040 4.669 M75.642 52.372 L 76.403 52.781 76.380 81.950 C 76.354 114.063,76.441 111.588,75.317 112.118 C 74.701 112.409,70.794 112.385,69.788 112.084 C 68.220 111.616,68.367 114.544,68.343 83.298 C 68.318 50.318,68.160 52.804,70.316 52.172 C 70.757 52.043,71.197 51.907,71.295 51.871 C 71.912 51.642,74.935 51.990,75.642 52.372 M138.443 52.547 C 138.957 52.888,139.199 53.194,139.288 53.615 C 139.416 54.225,139.773 60.201,139.737 61.148 C 139.563 65.833,139.581 83.392,139.761 84.166 C 139.952 84.984,140.837 86.089,141.053 85.778 C 141.669 84.891,142.334 84.203,142.735 84.037 C 143.015 83.921,143.469 83.469,143.745 83.032 C 144.021 82.596,144.508 82.077,144.827 81.880 C 145.145 81.683,145.634 81.230,145.912 80.874 C 147.028 79.446,153.003 73.342,153.286 73.342 C 153.376 73.342,153.449 73.263,153.449 73.166 C 153.449 72.786,155.008 71.060,155.656 70.722 C 157.273 69.880,162.358 69.642,163.616 70.349 C 164.505 70.848,164.496 71.205,163.568 72.195 C 163.161 72.629,162.670 73.245,162.477 73.564 C 162.285 73.883,161.356 74.914,160.414 75.856 C 159.472 76.798,158.534 77.759,158.330 77.992 C 158.126 78.225,157.685 78.669,157.351 78.979 C 156.653 79.626,156.297 80.041,156.297 80.209 C 156.297 80.274,155.202 81.437,153.864 82.794 C 152.526 84.152,151.305 85.446,151.150 85.671 C 150.995 85.896,150.711 86.257,150.519 86.473 C 149.614 87.493,149.521 89.006,150.306 89.968 C 150.634 90.370,151.006 90.899,151.134 91.144 C 151.262 91.389,151.414 91.629,151.473 91.678 C 151.636 91.814,151.992 92.418,152.268 93.028 C 152.404 93.329,152.707 93.730,152.942 93.918 C 153.176 94.105,153.751 94.740,154.220 95.327 C 154.689 95.915,155.174 96.519,155.296 96.670 C 156.428 98.065,157.090 98.963,157.382 99.498 C 158.172 100.942,158.572 101.499,159.546 102.509 C 160.109 103.093,160.570 103.659,160.570 103.766 C 160.570 103.873,160.634 103.961,160.712 103.961 C 160.894 103.961,162.706 106.699,162.706 106.974 C 162.706 107.088,162.902 107.377,163.141 107.617 C 163.381 107.856,163.827 108.415,164.132 108.859 C 164.437 109.303,165.014 109.971,165.413 110.343 L 166.139 111.021 165.571 111.426 C 163.243 113.083,157.185 112.529,155.868 110.539 C 155.612 110.152,155.323 109.835,155.227 109.835 C 155.130 109.835,155.051 109.715,155.051 109.568 C 155.051 109.421,154.991 109.301,154.918 109.300 C 154.844 109.299,154.584 109.002,154.339 108.640 C 154.094 108.277,153.688 107.777,153.436 107.528 C 153.184 107.280,152.718 106.617,152.401 106.056 C 152.085 105.495,151.570 104.728,151.257 104.351 C 150.945 103.974,150.490 103.395,150.245 103.065 C 150.000 102.734,149.439 102.058,148.999 101.562 C 148.558 101.066,147.997 100.362,147.753 99.997 C 147.508 99.633,147.247 99.334,147.174 99.334 C 147.101 99.333,147.040 99.219,147.040 99.080 C 147.040 98.942,146.976 98.801,146.896 98.769 C 146.817 98.736,146.495 98.256,146.180 97.701 C 145.624 96.721,144.058 94.991,143.373 94.600 C 142.859 94.305,142.073 94.712,140.732 95.967 L 139.564 97.059 139.564 104.147 L 139.564 111.235 139.074 111.576 C 137.477 112.688,132.918 112.656,131.464 111.522 C 131.112 111.247,131.107 110.968,130.999 83.704 C 130.940 68.557,130.832 55.830,130.760 55.423 C 130.529 54.116,131.037 52.811,131.953 52.359 C 133.187 51.749,137.425 51.872,138.443 52.547 M110.745 70.159 C 111.762 70.377,112.322 70.611,113.663 71.377 C 114.152 71.657,114.656 71.893,114.783 71.902 C 115.064 71.922,115.179 72.019,116.940 73.725 C 117.712 74.473,118.398 75.274,118.462 75.505 C 118.597 75.981,118.885 76.687,119.105 77.081 C 119.187 77.227,119.478 77.788,119.752 78.327 L 120.249 79.306 120.296 95.404 C 120.322 104.258,120.291 111.449,120.227 111.386 C 120.164 111.322,119.902 111.413,119.646 111.589 C 118.623 112.289,116.152 112.531,114.818 112.060 C 113.816 111.706,113.489 111.294,113.225 110.050 L 113.006 109.016 112.027 108.836 C 111.073 108.661,111.036 108.670,110.575 109.175 C 110.315 109.461,109.659 109.908,109.117 110.170 C 108.178 110.624,106.999 111.370,106.809 111.631 C 106.390 112.206,105.290 112.328,100.512 112.329 C 94.074 112.330,92.456 112.063,91.179 110.787 C 91.048 110.655,90.826 110.547,90.686 110.547 C 90.546 110.547,90.432 110.467,90.432 110.369 C 90.432 110.271,90.341 110.191,90.231 110.191 C 89.983 110.191,87.583 108.378,87.583 108.191 C 87.583 108.116,87.493 108.055,87.382 108.055 C 87.039 108.055,86.338 107.100,86.337 106.631 C 86.334 105.780,85.683 103.885,85.174 103.249 C 84.971 102.996,84.694 101.691,84.719 101.113 C 84.852 98.136,84.979 97.215,85.375 96.362 C 85.610 95.854,85.803 95.363,85.803 95.271 C 85.803 94.169,88.568 90.754,90.076 89.994 C 90.418 89.821,91.059 89.387,91.500 89.030 C 92.505 88.214,92.907 88.036,94.348 87.767 C 95.360 87.578,96.386 87.175,96.662 86.858 C 96.765 86.740,98.067 86.400,98.976 86.254 C 99.319 86.199,102.054 86.088,105.053 86.007 C 111.216 85.840,111.741 85.731,111.671 84.633 C 111.653 84.347,111.643 83.611,111.648 83.000 C 111.673 80.129,111.609 79.849,110.663 78.705 C 110.257 78.214,109.724 77.564,109.479 77.262 C 108.360 75.879,100.784 75.706,97.997 77.000 C 97.508 77.227,96.787 77.509,96.395 77.626 C 96.004 77.743,95.490 77.912,95.254 78.003 C 94.306 78.366,92.608 78.390,91.726 78.053 C 90.610 77.627,90.538 77.539,90.263 76.240 C 89.693 73.544,90.662 72.284,93.992 71.390 C 94.433 71.272,95.033 71.067,95.327 70.936 C 97.025 70.175,98.605 70.010,104.442 69.984 C 107.821 69.969,110.162 70.034,110.745 70.159 M201.442 70.123 C 201.726 70.213,202.176 70.334,202.441 70.392 C 202.994 70.513,203.827 71.274,203.827 71.659 C 203.827 71.802,203.907 71.918,204.005 71.918 C 204.103 71.918,204.183 72.009,204.183 72.120 C 204.183 72.581,205.054 73.107,205.349 72.824 C 205.442 72.735,206.159 72.400,206.943 72.079 C 207.726 71.759,208.567 71.362,208.812 71.198 C 211.085 69.676,220.604 69.349,223.129 70.707 C 223.366 70.834,224.027 71.178,224.597 71.470 C 225.168 71.762,225.955 72.326,226.346 72.723 C 227.051 73.438,228.760 74.588,229.118 74.588 C 229.604 74.588,231.411 73.379,231.426 73.043 C 231.438 72.790,232.721 72.007,233.556 71.744 C 233.996 71.605,234.637 71.325,234.980 71.122 C 235.323 70.919,235.803 70.659,236.048 70.545 C 238.337 69.476,250.289 69.881,250.289 71.028 C 250.289 71.095,250.610 71.255,251.001 71.384 C 251.393 71.513,251.713 71.686,251.713 71.769 C 251.713 71.851,251.802 71.918,251.910 71.918 C 252.150 71.918,253.495 72.950,253.809 73.375 C 253.934 73.543,254.154 73.799,254.299 73.944 C 254.443 74.089,254.562 74.256,254.562 74.316 C 254.562 74.417,254.715 74.625,255.197 75.173 C 255.945 76.026,256.502 77.621,256.886 80.018 C 257.012 80.801,257.221 81.700,257.351 82.015 C 257.481 82.330,257.590 83.251,257.592 84.062 C 257.594 84.873,257.674 85.857,257.768 86.248 C 257.911 86.840,257.964 100.509,257.857 109.198 C 257.830 111.368,257.697 111.596,256.151 112.114 C 255.314 112.395,251.351 112.394,250.698 112.113 C 249.491 111.593,249.577 112.666,249.577 98.239 C 249.577 87.564,249.531 85.024,249.325 84.213 C 249.186 83.668,248.980 82.741,248.869 82.154 C 248.757 81.567,248.590 80.840,248.498 80.539 C 248.406 80.239,248.331 79.869,248.331 79.719 C 248.331 79.568,248.039 79.173,247.681 78.841 C 247.323 78.509,246.639 77.862,246.160 77.404 C 245.178 76.463,245.181 76.463,241.181 76.267 C 237.761 76.099,236.640 76.560,234.045 79.199 C 232.671 80.596,232.310 81.069,232.310 81.470 C 232.309 82.448,231.765 84.572,231.210 85.760 L 230.649 86.960 230.671 89.987 C 230.684 91.651,230.790 93.502,230.906 94.100 C 231.068 94.928,231.070 95.381,230.913 96.003 C 230.775 96.554,230.708 99.171,230.708 104.040 C 230.708 112.900,230.955 112.330,227.115 112.325 C 224.885 112.322,224.114 112.169,223.186 111.547 L 222.697 111.219 222.697 96.029 C 222.697 85.944,222.636 80.802,222.516 80.728 C 222.417 80.667,222.216 80.330,222.070 79.980 C 221.923 79.630,221.584 79.150,221.316 78.913 C 221.047 78.676,220.416 78.077,219.913 77.583 C 218.794 76.484,218.372 76.382,214.953 76.389 C 211.175 76.397,210.938 76.455,209.173 77.803 L 207.665 78.954 206.197 81.892 C 204.280 85.726,204.370 84.873,204.359 99.243 C 204.350 110.373,204.329 111.194,204.036 111.526 C 202.970 112.736,197.582 112.658,196.671 111.420 C 195.989 110.492,196.234 71.442,196.926 70.749 C 197.604 70.072,200.159 69.717,201.442 70.123 M291.714 70.229 C 292.281 70.377,293.066 70.723,293.458 70.998 C 293.850 71.273,294.565 71.680,295.048 71.902 C 296.192 72.429,297.384 73.720,298.762 75.923 C 300.445 78.616,300.312 76.956,300.312 95.141 L 300.312 111.308 299.859 111.727 C 299.238 112.302,298.768 112.388,296.810 112.286 C 294.601 112.170,294.186 111.862,293.333 109.702 C 293.046 108.977,291.209 108.817,290.622 109.466 C 290.452 109.654,289.858 110.023,289.304 110.285 C 288.749 110.547,287.936 111.004,287.496 111.301 C 286.010 112.302,285.814 112.328,279.577 112.328 C 273.307 112.328,273.000 112.287,272.065 111.327 C 271.754 111.008,271.153 110.588,270.730 110.394 C 267.934 109.113,265.421 105.114,265.421 101.947 C 265.421 101.168,265.328 100.221,265.214 99.842 C 264.977 99.050,265.187 97.827,265.867 96.039 C 266.091 95.452,266.378 94.623,266.505 94.196 C 266.632 93.770,266.980 93.198,267.280 92.924 C 268.564 91.748,268.862 91.500,268.992 91.500 C 269.068 91.500,269.302 91.220,269.513 90.879 C 270.119 89.899,272.410 88.345,273.595 88.111 C 275.398 87.755,276.000 87.563,277.208 86.957 C 278.795 86.162,280.489 85.981,286.378 85.981 C 290.522 85.981,291.032 85.949,291.592 85.649 L 292.212 85.317 292.262 83.201 C 292.290 82.038,292.238 80.926,292.147 80.730 C 292.056 80.534,291.880 80.093,291.758 79.751 C 291.512 79.065,289.799 77.184,289.097 76.829 C 287.087 75.813,279.737 76.052,277.437 77.208 C 274.781 78.542,273.796 78.660,272.173 77.837 C 270.779 77.131,270.272 75.865,270.552 73.787 C 270.681 72.828,271.436 72.264,273.075 71.902 C 274.649 71.554,275.188 71.360,276.368 70.720 C 277.773 69.957,289.260 69.590,291.714 70.229 M317.988 70.484 C 318.386 70.957,318.421 71.122,318.337 72.162 C 318.266 73.044,318.323 73.506,318.579 74.129 C 318.968 75.073,319.039 75.095,319.820 74.499 C 320.141 74.255,320.516 74.054,320.653 74.054 C 320.790 74.054,321.273 73.674,321.727 73.209 C 322.794 72.114,322.833 72.086,323.988 71.567 C 324.526 71.325,325.207 70.960,325.501 70.757 C 326.523 70.049,327.156 69.960,331.157 69.960 C 333.275 69.960,335.192 70.030,335.417 70.115 C 335.642 70.201,336.141 70.371,336.525 70.494 C 337.600 70.838,337.702 71.005,337.287 71.736 C 336.953 72.325,336.863 72.593,336.436 74.283 C 335.951 76.204,335.763 76.295,332.044 76.417 L 328.876 76.521 326.820 77.577 C 324.817 78.605,322.207 80.724,322.207 81.322 C 322.207 81.437,321.944 81.911,321.623 82.376 C 320.881 83.449,320.461 84.553,320.082 86.426 C 320.003 86.818,319.922 92.506,319.903 99.065 C 319.870 109.942,319.841 111.022,319.569 111.327 C 318.401 112.636,313.340 112.749,311.989 111.496 L 311.506 111.048 311.539 91.057 C 311.557 80.062,311.621 70.986,311.682 70.889 C 312.101 70.224,313.042 69.985,315.293 69.973 L 317.547 69.960 317.988 70.484 M187.458 88.165 C 189.000 88.702,189.589 89.731,189.587 91.888 C 189.585 94.276,189.059 94.391,178.532 94.297 C 167.671 94.201,168.177 94.400,168.519 90.356 C 168.717 88.007,168.796 87.990,178.994 87.964 C 184.796 87.950,186.991 88.002,187.458 88.165 M108.734 91.592 C 108.646 91.680,106.608 91.881,102.537 92.203 C 99.548 92.439,98.086 92.741,98.086 93.122 C 98.086 93.260,96.930 94.000,95.655 94.678 C 94.214 95.445,93.218 100.025,94.006 102.267 C 95.161 105.553,96.025 106.008,101.113 106.008 L 104.762 106.008 105.739 105.504 C 106.277 105.227,106.759 104.932,106.810 104.849 C 106.862 104.766,107.503 104.388,108.236 104.010 C 109.736 103.237,110.095 102.712,111.257 99.599 C 111.922 97.818,112.031 93.347,111.434 92.335 C 111.053 91.688,109.159 91.167,108.734 91.592 M288.206 91.706 C 286.983 91.788,285.439 91.935,284.776 92.033 C 284.114 92.132,282.864 92.212,282.000 92.212 C 280.103 92.212,278.508 92.669,278.006 93.358 C 277.823 93.609,277.560 93.814,277.422 93.814 C 277.283 93.814,277.170 93.894,277.170 93.992 C 277.170 94.090,277.081 94.170,276.973 94.170 C 276.200 94.170,274.703 96.035,274.156 97.680 C 273.712 99.014,273.707 99.187,274.073 101.113 C 274.230 101.945,274.392 102.803,274.431 103.019 C 274.470 103.235,274.712 103.635,274.967 103.909 C 275.223 104.182,275.555 104.591,275.705 104.817 C 276.469 105.967,282.793 106.598,285.269 105.770 C 286.385 105.398,287.204 104.999,287.494 104.688 C 287.641 104.531,288.222 104.060,288.785 103.642 C 289.348 103.223,289.809 102.815,289.809 102.735 C 289.809 102.655,289.989 102.393,290.209 102.153 C 290.771 101.541,291.589 100.447,291.589 100.306 C 291.589 100.242,291.740 99.976,291.924 99.716 C 292.202 99.325,292.277 98.799,292.360 96.662 C 292.414 95.243,292.513 93.820,292.578 93.502 C 292.726 92.784,291.585 91.479,290.853 91.528 C 290.621 91.544,289.430 91.624,288.206 91.706 " stroke="none" fill="#f4f4f4" fill-rule="evenodd"></path><path id="path1" d="M0.000 89.008 L 0.000 178.015 200.000 178.015 L 400.000 178.015 400.000 89.008 L 400.000 0.000 200.000 0.000 L 0.000 0.000 0.000 89.008 M394.167 4.687 C 394.532 4.814,394.887 4.975,394.956 5.044 C 395.548 5.636,395.544 5.092,395.547 81.750 C 395.549 144.787,395.589 157.111,395.792 157.673 C 396.382 159.306,396.440 160.102,396.440 166.547 L 396.440 173.053 395.990 174.003 C 395.743 174.525,395.410 175.061,395.251 175.193 C 394.946 175.446,8.448 175.678,5.919 175.427 C 5.128 175.349,4.806 175.243,4.806 175.064 C 4.806 174.925,4.742 174.811,4.664 174.811 C 3.921 174.811,3.526 159.453,4.228 157.852 C 4.427 157.397,4.448 156.049,4.395 147.040 C 4.274 126.406,4.500 6.227,4.662 5.624 L 4.871 4.840 6.040 4.669 C 8.014 4.381,393.339 4.399,394.167 4.687 M71.295 51.871 C 71.197 51.907,70.757 52.043,70.316 52.172 C 68.160 52.804,68.318 50.318,68.343 83.298 C 68.367 114.544,68.220 111.616,69.788 112.084 C 70.794 112.385,74.701 112.409,75.317 112.118 C 76.441 111.588,76.354 114.063,76.380 81.950 L 76.403 52.781 75.642 52.372 C 74.935 51.990,71.912 51.642,71.295 51.871 M131.953 52.359 C 131.037 52.811,130.529 54.116,130.760 55.423 C 130.832 55.830,130.940 68.557,130.999 83.704 C 131.107 110.968,131.112 111.247,131.464 111.522 C 132.918 112.656,137.477 112.688,139.074 111.576 L 139.564 111.235 139.564 104.147 L 139.564 97.059 140.732 95.967 C 142.073 94.712,142.859 94.305,143.373 94.600 C 144.058 94.991,145.624 96.721,146.180 97.701 C 146.495 98.256,146.817 98.736,146.896 98.769 C 146.976 98.801,147.040 98.942,147.040 99.080 C 147.040 99.219,147.101 99.333,147.174 99.334 C 147.247 99.334,147.508 99.633,147.753 99.997 C 147.997 100.362,148.558 101.066,148.999 101.562 C 149.439 102.058,150.000 102.734,150.245 103.065 C 150.490 103.395,150.945 103.974,151.257 104.351 C 151.570 104.728,152.085 105.495,152.401 106.056 C 152.718 106.617,153.184 107.280,153.436 107.528 C 153.688 107.777,154.094 108.277,154.339 108.640 C 154.584 109.002,154.844 109.299,154.918 109.300 C 154.991 109.301,155.051 109.421,155.051 109.568 C 155.051 109.715,155.130 109.835,155.227 109.835 C 155.323 109.835,155.612 110.152,155.868 110.539 C 157.185 112.529,163.243 113.083,165.571 111.426 L 166.139 111.021 165.413 110.343 C 165.014 109.971,164.437 109.303,164.132 108.859 C 163.827 108.415,163.381 107.856,163.141 107.617 C 162.902 107.377,162.706 107.088,162.706 106.974 C 162.706 106.699,160.894 103.961,160.712 103.961 C 160.634 103.961,160.570 103.873,160.570 103.766 C 160.570 103.659,160.109 103.093,159.546 102.509 C 158.572 101.499,158.172 100.942,157.382 99.498 C 157.090 98.963,156.428 98.065,155.296 96.670 C 155.174 96.519,154.689 95.915,154.220 95.327 C 153.751 94.740,153.176 94.105,152.942 93.918 C 152.707 93.730,152.404 93.329,152.268 93.028 C 151.992 92.418,151.636 91.814,151.473 91.678 C 151.414 91.629,151.262 91.389,151.134 91.144 C 151.006 90.899,150.634 90.370,150.306 89.968 C 149.521 89.006,149.614 87.493,150.519 86.473 C 150.711 86.257,150.995 85.896,151.150 85.671 C 151.305 85.446,152.526 84.152,153.864 82.794 C 155.202 81.437,156.297 80.274,156.297 80.209 C 156.297 80.041,156.653 79.626,157.351 78.979 C 157.685 78.669,158.126 78.225,158.330 77.992 C 158.534 77.759,159.472 76.798,160.414 75.856 C 161.356 74.914,162.285 73.883,162.477 73.564 C 162.670 73.245,163.161 72.629,163.568 72.195 C 164.496 71.205,164.505 70.848,163.616 70.349 C 162.358 69.642,157.273 69.880,155.656 70.722 C 155.008 71.060,153.449 72.786,153.449 73.166 C 153.449 73.263,153.376 73.342,153.286 73.342 C 153.003 73.342,147.028 79.446,145.912 80.874 C 145.634 81.230,145.145 81.683,144.827 81.880 C 144.508 82.077,144.021 82.596,143.745 83.032 C 143.469 83.469,143.015 83.921,142.735 84.037 C 142.334 84.203,141.669 84.891,141.053 85.778 C 140.837 86.089,139.952 84.984,139.761 84.166 C 139.581 83.392,139.563 65.833,139.737 61.148 C 139.773 60.201,139.416 54.225,139.288 53.615 C 138.973 52.119,134.121 51.288,131.953 52.359 M97.908 70.222 C 96.554 70.471,96.056 70.609,95.327 70.936 C 95.033 71.067,94.433 71.272,93.992 71.390 C 90.662 72.284,89.693 73.544,90.263 76.240 C 90.538 77.539,90.610 77.627,91.726 78.053 C 92.608 78.390,94.306 78.366,95.254 78.003 C 95.490 77.912,96.004 77.743,96.395 77.626 C 96.787 77.509,97.508 77.227,97.997 77.000 C 100.784 75.706,108.360 75.879,109.479 77.262 C 109.724 77.564,110.257 78.214,110.663 78.705 C 111.609 79.849,111.673 80.129,111.648 83.000 C 111.643 83.611,111.653 84.347,111.671 84.633 C 111.741 85.731,111.216 85.840,105.053 86.007 C 102.054 86.088,99.319 86.199,98.976 86.254 C 98.067 86.400,96.765 86.740,96.662 86.858 C 96.386 87.175,95.360 87.578,94.348 87.767 C 92.907 88.036,92.505 88.214,91.500 89.030 C 91.059 89.387,90.418 89.821,90.076 89.994 C 88.568 90.754,85.803 94.169,85.803 95.271 C 85.803 95.363,85.610 95.854,85.375 96.362 C 84.979 97.215,84.852 98.136,84.719 101.113 C 84.694 101.691,84.971 102.996,85.174 103.249 C 85.683 103.885,86.334 105.780,86.337 106.631 C 86.338 107.100,87.039 108.055,87.382 108.055 C 87.493 108.055,87.583 108.116,87.583 108.191 C 87.583 108.378,89.983 110.191,90.231 110.191 C 90.341 110.191,90.432 110.271,90.432 110.369 C 90.432 110.467,90.546 110.547,90.686 110.547 C 90.826 110.547,91.048 110.655,91.179 110.787 C 92.456 112.063,94.074 112.330,100.512 112.329 C 105.290 112.328,106.390 112.206,106.809 111.631 C 106.999 111.370,108.178 110.624,109.117 110.170 C 109.659 109.908,110.315 109.461,110.575 109.175 C 111.036 108.670,111.073 108.661,112.027 108.836 L 113.006 109.016 113.225 110.050 C 113.489 111.294,113.816 111.706,114.818 112.060 C 116.152 112.531,118.623 112.289,119.646 111.589 C 119.902 111.413,120.164 111.322,120.227 111.386 C 120.291 111.449,120.322 104.258,120.296 95.404 L 120.249 79.306 119.752 78.327 C 119.478 77.788,119.187 77.227,119.105 77.081 C 118.885 76.687,118.597 75.981,118.462 75.505 C 118.398 75.274,117.712 74.473,116.940 73.725 C 115.179 72.019,115.064 71.922,114.783 71.902 C 114.656 71.893,114.152 71.657,113.663 71.377 C 112.322 70.611,111.762 70.377,110.745 70.159 C 109.482 69.888,99.450 69.937,97.908 70.222 M197.703 70.321 C 196.808 70.768,196.884 70.656,196.595 71.953 C 196.168 73.865,196.240 110.834,196.671 111.420 C 197.281 112.249,202.194 112.754,203.332 112.105 C 204.415 111.487,204.349 112.318,204.359 99.243 C 204.370 84.873,204.280 85.726,206.197 81.892 L 207.665 78.954 209.173 77.803 C 210.938 76.455,211.175 76.397,214.953 76.389 C 218.372 76.382,218.794 76.484,219.913 77.583 C 220.416 78.077,221.047 78.676,221.316 78.913 C 221.584 79.150,221.923 79.630,222.070 79.980 C 222.216 80.330,222.417 80.667,222.516 80.728 C 222.636 80.802,222.697 85.944,222.697 96.029 L 222.697 111.219 223.186 111.547 C 224.114 112.169,224.885 112.322,227.115 112.325 C 230.955 112.330,230.708 112.900,230.708 104.040 C 230.708 99.171,230.775 96.554,230.913 96.003 C 231.070 95.381,231.068 94.928,230.906 94.100 C 230.790 93.502,230.684 91.651,230.671 89.987 L 230.649 86.960 231.210 85.760 C 231.765 84.572,232.309 82.448,232.310 81.470 C 232.310 81.069,232.671 80.596,234.045 79.199 C 236.640 76.560,237.761 76.099,241.181 76.267 C 245.181 76.463,245.178 76.463,246.160 77.404 C 246.639 77.862,247.323 78.509,247.681 78.841 C 248.039 79.173,248.331 79.568,248.331 79.719 C 248.331 79.869,248.406 80.239,248.498 80.539 C 248.590 80.840,248.757 81.567,248.869 82.154 C 248.980 82.741,249.186 83.668,249.325 84.213 C 249.531 85.024,249.577 87.564,249.577 98.239 C 249.577 112.666,249.491 111.593,250.698 112.113 C 251.351 112.394,255.314 112.395,256.151 112.114 C 257.697 111.596,257.830 111.368,257.857 109.198 C 257.964 100.509,257.911 86.840,257.768 86.248 C 257.674 85.857,257.594 84.873,257.592 84.062 C 257.590 83.251,257.481 82.330,257.351 82.015 C 257.221 81.700,257.012 80.801,256.886 80.018 C 256.502 77.621,255.945 76.026,255.197 75.173 C 254.715 74.625,254.562 74.417,254.562 74.316 C 254.562 74.256,254.443 74.089,254.299 73.944 C 254.154 73.799,253.934 73.543,253.809 73.375 C 253.495 72.950,252.150 71.918,251.910 71.918 C 251.802 71.918,251.713 71.851,251.713 71.769 C 251.713 71.686,251.393 71.513,251.001 71.384 C 250.610 71.255,250.289 71.095,250.289 71.028 C 250.289 69.881,238.337 69.476,236.048 70.545 C 235.803 70.659,235.323 70.919,234.980 71.122 C 234.637 71.325,233.996 71.605,233.556 71.744 C 232.721 72.007,231.438 72.790,231.426 73.043 C 231.411 73.379,229.604 74.588,229.118 74.588 C 228.760 74.588,227.051 73.438,226.346 72.723 C 225.955 72.326,225.168 71.762,224.597 71.470 C 224.027 71.178,223.366 70.834,223.129 70.707 C 222.007 70.103,220.745 69.960,216.555 69.960 C 211.600 69.960,210.366 70.157,208.812 71.198 C 208.567 71.362,207.726 71.759,206.943 72.079 C 206.159 72.400,205.442 72.735,205.349 72.824 C 205.054 73.107,204.183 72.581,204.183 72.120 C 204.183 72.009,204.103 71.918,204.005 71.918 C 203.907 71.918,203.827 71.802,203.827 71.659 C 203.827 71.274,202.994 70.513,202.441 70.392 C 202.176 70.334,201.726 70.213,201.442 70.123 C 200.520 69.831,198.466 69.940,197.703 70.321 M277.971 70.216 C 277.383 70.334,276.662 70.560,276.368 70.720 C 275.188 71.360,274.649 71.554,273.075 71.902 C 271.436 72.264,270.681 72.828,270.552 73.787 C 270.272 75.865,270.779 77.131,272.173 77.837 C 273.796 78.660,274.781 78.542,277.437 77.208 C 279.737 76.052,287.087 75.813,289.097 76.829 C 289.799 77.184,291.512 79.065,291.758 79.751 C 291.880 80.093,292.056 80.534,292.147 80.730 C 292.238 80.926,292.290 82.038,292.262 83.201 L 292.212 85.317 291.592 85.649 C 291.032 85.949,290.522 85.981,286.378 85.981 C 280.489 85.981,278.795 86.162,277.208 86.957 C 276.000 87.563,275.398 87.755,273.595 88.111 C 272.410 88.345,270.119 89.899,269.513 90.879 C 269.302 91.220,269.068 91.500,268.992 91.500 C 268.862 91.500,268.564 91.748,267.280 92.924 C 266.980 93.198,266.632 93.770,266.505 94.196 C 266.378 94.623,266.091 95.452,265.867 96.039 C 265.187 97.827,264.977 99.050,265.214 99.842 C 265.328 100.221,265.421 101.168,265.421 101.947 C 265.421 105.114,267.934 109.113,270.730 110.394 C 271.153 110.588,271.754 111.008,272.065 111.327 C 273.000 112.287,273.307 112.328,279.577 112.328 C 285.814 112.328,286.010 112.302,287.496 111.301 C 287.936 111.004,288.749 110.547,289.304 110.285 C 289.858 110.023,290.452 109.654,290.622 109.466 C 291.209 108.817,293.046 108.977,293.333 109.702 C 294.186 111.862,294.601 112.170,296.810 112.286 C 298.768 112.388,299.238 112.302,299.859 111.727 L 300.312 111.308 300.312 95.141 C 300.312 76.956,300.445 78.616,298.762 75.923 C 297.384 73.720,296.192 72.429,295.048 71.902 C 294.565 71.680,293.850 71.273,293.458 70.998 C 292.121 70.058,291.270 69.958,284.860 69.981 C 281.126 69.995,278.656 70.079,277.971 70.216 M312.417 70.349 C 312.074 70.549,311.744 70.792,311.682 70.889 C 311.621 70.986,311.557 80.062,311.539 91.057 L 311.506 111.048 311.989 111.496 C 313.340 112.749,318.401 112.636,319.569 111.327 C 319.841 111.022,319.870 109.942,319.903 99.065 C 319.922 92.506,320.003 86.818,320.082 86.426 C 320.461 84.553,320.881 83.449,321.623 82.376 C 321.944 81.911,322.207 81.437,322.207 81.322 C 322.207 80.724,324.817 78.605,326.820 77.577 L 328.876 76.521 332.044 76.417 C 335.763 76.295,335.951 76.204,336.436 74.283 C 336.863 72.593,336.953 72.325,337.287 71.736 C 337.702 71.005,337.600 70.838,336.525 70.494 C 336.141 70.371,335.642 70.201,335.417 70.115 C 335.192 70.030,333.275 69.960,331.157 69.960 C 327.156 69.960,326.523 70.049,325.501 70.757 C 325.207 70.960,324.526 71.325,323.988 71.567 C 322.833 72.086,322.794 72.114,321.727 73.209 C 321.273 73.674,320.790 74.054,320.653 74.054 C 320.516 74.054,320.141 74.255,319.820 74.499 C 319.039 75.095,318.968 75.073,318.579 74.129 C 318.323 73.506,318.266 73.044,318.337 72.162 C 318.421 71.122,318.386 70.957,317.988 70.484 L 317.547 69.960 315.293 69.973 C 313.361 69.983,312.951 70.037,312.417 70.349 M170.300 88.219 C 168.788 88.631,168.650 88.796,168.519 90.356 C 168.177 94.400,167.671 94.201,178.532 94.297 C 189.059 94.391,189.585 94.276,189.587 91.888 C 189.589 89.731,189.000 88.702,187.458 88.165 C 186.533 87.842,171.506 87.890,170.300 88.219 M110.252 91.612 C 111.556 91.791,111.794 92.352,111.794 95.246 C 111.794 97.898,111.657 98.651,110.797 100.757 C 109.891 102.972,109.646 103.283,108.236 104.010 C 107.503 104.388,106.862 104.766,106.810 104.849 C 106.759 104.932,106.277 105.227,105.739 105.504 L 104.762 106.008 101.113 106.008 C 96.025 106.008,95.161 105.553,94.006 102.267 C 93.218 100.025,94.214 95.445,95.655 94.678 C 96.930 94.000,98.086 93.260,98.086 93.122 C 98.086 92.741,99.548 92.439,102.537 92.203 C 106.608 91.881,108.646 91.680,108.734 91.592 C 108.856 91.470,109.253 91.476,110.252 91.612 M291.986 92.211 C 292.615 92.840,292.684 92.990,292.578 93.502 C 292.513 93.820,292.414 95.243,292.360 96.662 C 292.277 98.799,292.202 99.325,291.924 99.716 C 291.740 99.976,291.589 100.242,291.589 100.306 C 291.589 100.447,290.771 101.541,290.209 102.153 C 289.989 102.393,289.809 102.655,289.809 102.735 C 289.809 102.815,289.348 103.223,288.785 103.642 C 288.222 104.060,287.641 104.531,287.494 104.688 C 287.204 104.999,286.385 105.398,285.269 105.770 C 282.793 106.598,276.469 105.967,275.705 104.817 C 275.555 104.591,275.223 104.182,274.967 103.909 C 274.712 103.635,274.470 103.235,274.431 103.019 C 274.392 102.803,274.230 101.945,274.073 101.113 C 273.707 99.187,273.712 99.014,274.156 97.680 C 274.703 96.035,276.200 94.170,276.973 94.170 C 277.081 94.170,277.170 94.090,277.170 93.992 C 277.170 93.894,277.283 93.814,277.422 93.814 C 277.560 93.814,277.823 93.609,278.006 93.358 C 278.508 92.669,280.103 92.212,282.000 92.212 C 282.864 92.212,284.114 92.132,284.776 92.033 C 285.439 91.935,286.983 91.788,288.206 91.706 C 289.430 91.624,290.621 91.544,290.853 91.528 C 291.131 91.509,291.516 91.741,291.986 92.211 " stroke="none" fill="#fcfcfc" fill-rule="evenodd"></path></g></svg>